<?xml version="1.0" standalone="no"?><!DOCTYPE svg PUBLIC "-//W3C//DTD SVG 1.1//EN" "http://www.w3.org/Graphics/SVG/1.1/DTD/svg11.dtd"><svg t="1595421729453" class="icon" viewBox="0 0 1024 1024" version="1.1" xmlns="http://www.w3.org/2000/svg" p-id="4573" xmlns:xlink="http://www.w3.org/1999/xlink" width="200" height="200"><defs><style type="text/css"></style></defs><path d="M902.79287787 512.54199573c0 215.90333227-175.0233216 390.9266528-390.9252736 390.92665387S120.9437088 728.445328 120.9437088 512.54199573c0-215.90057387 175.0233216-390.92389547 390.92527467-390.9238944 51.98472213 0 101.60148693 10.14621973 146.9746848 28.56856534 143.063488 58.08734827 243.9492096 198.44223573 243.9492096 362.35532906z" fill="#FBDF6C" p-id="4574"></path><path d="M586.33067733 845.7578016c-215.90195307 0-390.9252736-175.0233216-390.9252736-390.9252736 0-115.34722133 49.9698208-219.0132576 129.4294624-290.56637867C198.27260373 228.9760544 111.63186027 360.64107733 111.63186027 512.54199573c0 215.90333227 175.0233216 390.9266528 390.9252736 390.92665387 100.55197333 0 192.2279008-37.9783328 261.4958112-100.3547584-52.32109333 27.2611552-113.72399147 42.64391147-177.72226774 42.6439104z" fill="#FAC56B" p-id="4575"></path><path d="M285.4291392 485.27670293c-29.0305728 0-52.56671253 23.53338133-52.56671253 52.56533334h105.13480426c-0.0027584-29.0305728-23.53613973-52.56533333-52.56809173-52.56533334z m458.5161696 0c-29.0291936 0-52.56671253 23.53338133-52.56671253 52.56533334H796.51340053c0.0013792-29.0305728-23.53338133-52.56533333-52.56809173-52.56533334z" fill="#F8A880" p-id="4576"></path><path d="M345.77825173 391.53622613c0-20.51171947 16.69016533-37.19912747 37.20050667-37.19912746s37.20188587 16.68740693 37.20188587 37.19912746c0 8.7836448 7.11904107 15.90268587 15.9013056 15.90268587 8.7836448 0 15.90268587-7.12042027 15.90268586-15.90268587 0-38.05004693-30.9572096-69.00725653-69.00863573-69.00725653-38.05142613 0-69.00725653 30.9572096-69.00725653 69.00725653 0 8.7836448 7.12042027 15.90268587 15.90130666 15.90268587 8.78916053 0 15.9082016-7.11766187 15.9082016-15.90268587M646.4025856 322.5303488c-38.05004693 0-69.00725653 30.9558304-69.00725653 69.00725653 0 8.7836448 7.12042027 15.90406507 15.90268586 15.90406507 8.7808864 0 15.90268587-7.12042027 15.90268587-15.90406507 0-20.51171947 16.68878613-37.19912747 37.1991264-37.19912746 20.51171947 0 37.20188587 16.68740693 37.20188587 37.19912746 0 8.7836448 7.12042027 15.90406507 15.90268586 15.90406507s15.90130667-7.12042027 15.9013056-15.90406507c0.0041376-38.05142613-30.9503136-69.00725653-69.00311893-69.00725653" fill="#7D164A" p-id="4577"></path><path d="M514.6892928 798.22351467c-113.00684693 0-204.6179552-91.60972907-204.6179552-204.6179552h409.23315307c0.0013792 113.00822613-91.61110827 204.6179552-204.61519787 204.6179552z" fill="#FFFFFF" p-id="4578"></path><path d="M330.1886272 682.18535253a204.560032 204.560032 0 0 0 19.04571093 31.80537067h330.90990934a204.52417493 204.52417493 0 0 0 19.04709013-31.80537067H330.1886272z" fill="#E6E6E6" p-id="4579"></path><path d="M514.6892928 818.41251947c-118.76882987 0-215.3944352-96.62560533-215.3944352-215.393056 0-13.9250208 11.32812907-25.25314987 25.25315093-25.25314987h380.2798112c13.9236416 0 25.25314987 11.32812907 25.25314987 25.25314987 0 118.76745067-96.62422613 215.393056-215.3916768 215.393056zM324.54800853 598.7165952a4.30700587 4.30700587 0 0 0-4.30286933 4.30286827c0 107.21590293 87.22687147 194.4413952 194.4441536 194.44139626 107.21452373 0 194.4413952-87.22687147 194.4413952-194.44139626 0-2.37209387-1.9293952-4.30286827-4.30286827-4.30286827h-380.2798112z" fill="#7D164A" p-id="4580"></path><path d="M514.6879136 919.58234027c-55.07671893 0-108.51228053-10.79027093-158.82412373-32.07016214-48.58931733-20.55171413-92.22344-49.9698208-129.69011734-87.4364992-37.46667733-37.46805653-66.884784-81.1021792-87.43649813-129.69011626-21.28127147-50.3132224-32.0701632-103.748784-32.0701632-158.82550294s10.79027093-108.51228053 32.0701632-158.8241248c20.55171413-48.58931733 49.9684416-92.22344 87.43649813-129.69011626s81.1008-66.884784 129.69011734-87.4364992c50.31184427-21.28127147 103.748784-32.0701632 158.82412373-32.07016214s108.51228053 10.79027093 158.82412373 32.07016214c48.58931733 20.55171413 92.2220608 49.9684416 129.69011734 87.4364992 37.46667733 37.46667733 66.884784 81.1008 87.43649813 129.69011626 21.27989227 50.31184427 32.0701632 103.748784 32.0701632 158.8241248 0 55.07671893-10.79027093 108.51228053-32.0701632 158.82550294-20.55171413 48.58793813-49.9698208 92.2220608-87.43649813 129.69011626-37.46805653 37.46667733-81.1008 66.884784-129.69011734 87.4364992-50.31184427 21.27851307-103.7474048 32.0701632-158.82412373 32.07016214z m0-786.9450336c-208.93875307 0-378.92275307 169.984-378.92275307 378.92275306 0 208.93875307 169.984 378.92275307 378.92275307 378.922752s378.92275307-169.984 378.92275307-378.922752c0-208.93875307-169.984-378.92275307-378.92275307-378.92275306z" fill="#7D164A" p-id="4581"></path></svg>