<?xml version="1.0" standalone="no"?><!DOCTYPE svg PUBLIC "-//W3C//DTD SVG 1.1//EN" "http://www.w3.org/Graphics/SVG/1.1/DTD/svg11.dtd"><svg t="1594303736404" class="icon" viewBox="0 0 1024 1024" version="1.1" xmlns="http://www.w3.org/2000/svg" p-id="23654" xmlns:xlink="http://www.w3.org/1999/xlink" width="200" height="200"><defs><style type="text/css"></style></defs><path d="M191.232 468.992h65.664L117.12 716.544h264.32c-3.84 0-5.76-2.816-5.76-8.448l-23.36-106.88h59.328l31.808 121.216c0 12.544-3.84 23.488-11.648 32.64-9.152 7.296-17.472 10.944-24.896 10.944H47.168v-36.16c0-9.856 3.712-21.248 11.136-34.112l132.928-226.752zM89.024 338.304h59.84L120.256 490.88c-7.424 35.584-25.6 53.44-54.592 53.44H0v-51.968h47.168c7.04 0 12.864-8.576 17.472-25.728l24.32-128.256z m91.072-3.968h193.344c4.992 0 9.92 7.936 14.848 23.808l34.432 111.36c4.608 17.792 8.64 26.752 12.16 26.752h46.72v48H388.224c-5.312 0-10.56-9.088-15.872-27.264l-38.656-121.28c-3.52-10.56-7.232-15.808-11.136-15.808H180.096v-45.568z m421.696-4.48h66.24l-19.648 37.696h110.72V320h59.328v47.552h188.608v49.92h-188.608v80.768H1024v51.968H536.128v-51.968h222.976V417.536H623.488l-8.96 18.816c-5.312 9.6-12.928 14.336-22.784 14.336h-51.392v-49.024h16.96c6.336 0 11.456-4.096 15.36-12.352l29.12-59.392z m-35.52 267.328h425.408v137.152c0 22.4-15.552 33.664-46.592 33.664H566.272V597.184z m347.52 123.264c11.328 0 16.96-4.096 16.96-12.352v-63.36H627.2v75.712h286.592z" p-id="23655" fill="#515151"></path></svg>