<?xml version="1.0" encoding="utf-8"?>
<svg version="1.1" xmlns:xlink="http://www.w3.org/1999/xlink" width="23px" height="21px" xmlns="http://www.w3.org/2000/svg">
  <g transform="matrix(1 0 0 1 -579 -214 )">
    <path d="M 11.8515625 20.1484375  C 11.734375 20.1875  11.63671875 20.20703125  11.5390625 20.20703125  C 11.36328125 20.20703125  11.20703125 20.1484375  11.0703125 20.03125  C 11.0703125 20.03125  10.07421875 19.1328125  8.94140625 18.17578125  C 7.02734375 16.59375  6.421875 16.28125  6.28515625 16.2421875  L 1.265625 16.2421875  C 0.953125 16.2421875  0.69921875 15.98828125  1 15.65625  L 1 5.34375  C 0.69921875 5.03125  0.953125 4.7578125  1.265625 4.7578125  L 5.796875 4.7578125  C 5.953125 4.69921875  6.59765625 4.42578125  8.74609375 2.8046875  C 9.99609375 1.8671875  11.12890625 0.94921875  11.12890625 0.94921875  C 11.24609375 0.8515625  11.40234375 0.79296875  11.55859375 0.79296875  C 11.65625 0.79296875  11.7734375 0.8125  11.87109375 0.87109375  C 12.10546875 0.98828125  12.26171875 1.2421875  12 1.515625  L 12 19.484375  C 12.26171875 19.7578125  12.10546875 20.03125  11.8515625 20.1484375  Z M 6.28515625 15.05078125  L 6.32421875 15.0703125  C 6.734375 15.0703125  7.359375 15.24609375  9.91796875 17.35546875  C 10.26953125 17.6484375  10.640625 17.9609375  11.03125 18.29296875  L 11 18.390625  L 11 2.51171875  L 11.03125 2.58984375  C 10.54296875 2.9609375  10.07421875 3.33203125  9.625 3.6640625  C 6.8125 5.7734375  6.1875 5.9296875  5.77734375 5.9296875  L 2.28125 5.9296875  C 1.8515625 5.9296875  1.8125 6.203125  1.8125 6.49609375  L 1.8125 14.40625  C 1.8125 14.9140625  1.94921875 15.05078125  2.41796875 15.05078125  L 6.28515625 15.05078125  Z M 17.84765625 18.390625  C 17.7109375 18.5078125  17.61328125 18.546875  17.49609375 18.546875  C 17.18359375 18.546875  16.9296875 18.29296875  16.9296875 17.9609375  C 16.9296875 17.70703125  17.10546875 17.53125  17.28125 17.43359375  C 19.703125 15.98828125  21.1875 13.33203125  21.1875 10.48046875  C 21.1875 7.62890625  19.68359375 4.97265625  17.28125 3.52734375  C 17.06640625 3.41015625  16.94921875 3.21484375  16.94921875 3  C 16.94921875 2.6875  17.203125 2.4140625  17.515625 2.4140625  C 17.6328125 2.4140625  17.73046875 2.453125  17.8671875 2.53125  C 20.62109375 4.171875  22.3203125 7.21875  22.3203125 10.4609375  C 22.3203125 13.72265625  20.6015625 16.75  17.84765625 18.390625  Z M 15.89453125 15.16796875  C 15.85546875 15.16796875  15.69921875 15.265625  15.5625 15.265625  C 15.25 15.265625  14.99609375 15.01171875  14.99609375 14.6796875  C 14.99609375 14.46484375  15.09375 14.2890625  15.26953125 14.171875  C 16.59765625 13.4296875  17.41796875 12.0234375  17.41796875 10.5  C 17.41796875 8.99609375  16.6171875 7.609375  15.34765625 6.84765625  C 15.171875 6.75  15.07421875 6.5546875  15.07421875 6.33984375  C 15.07421875 6.02734375  15.328125 5.75390625  15.640625 5.75390625  C 15.73828125 5.75390625  15.89453125 5.8125  15.97265625 5.8515625  C 17.57421875 6.80859375  18.58984375 8.5859375  18.58984375 10.48046875  C 18.58984375 12.4140625  17.5546875 14.2109375  15.89453125 15.16796875  Z " fill-rule="nonzero" fill="#707070" stroke="none" transform="matrix(1 0 0 1 579 214 )" />
  </g>
</svg>