<?xml version="1.0" encoding="utf-8"?>
<svg version="1.1" xmlns:xlink="http://www.w3.org/1999/xlink" width="25px" height="25px" xmlns="http://www.w3.org/2000/svg">
  <g transform="matrix(1 0 0 1 -504 -842 )">
    <path d="M 18.75 17.1875  L 18.75 18.75  L 17.1875 18.75  C 16.7560275391947 18.75  16.40625 19.0997775391947  16.40625 19.53125  C 16.40625 19.9627224608053  16.7560275391947 20.3125  17.1875 20.3125  L 18.75 20.3125  L 18.75 21.875  C 18.75 22.3064724608053  19.0997775391947 22.65625  19.53125 22.65625  C 19.9627224608053 22.65625  20.3125 22.3064724608053  20.3125 21.875  L 20.3125 20.3125  L 21.875 20.3125  C 22.3064724608053 20.3125  22.65625 19.9627224608053  22.65625 19.53125  C 22.65625 19.0997775391947  22.3064724608053 18.75  21.875 18.75  L 20.3125 18.75  L 20.3125 17.1875  C 20.3125 16.7560275391947  19.9627224608053 16.40625  19.53125 16.40625  C 19.0997775391947 16.40625  18.75 16.7560275391947  18.75 17.1875  Z M 12.5 19.809375  C 12.5 21.840625  13.3984375 23.7  14.85 25  L 2.4453125 25  C 1.096875 25  0 24.1734375  0 22.8234375  L 0 22.2375  C 0 21.0015625  0.9109375 19.9046875  2.075 19.4875  L 7.053125 17.2703125  C 7.053125 17.2703125  8.4015625 16.85625  8.771875 16.4421875  C 9.01875 16.1671875  9.09375 15.2578125  8.7828125 14.6625  C 8.4703125 14.0671875  5.9484375 10.784375  5.9484375 8.034375  C 5.9484375 3.596875  8.8671875 0  12.46875 0  C 16.06875 0  18.9890625 3.596875  18.9890625 8.034375  C 18.9890625 9.7921875  17.928125 11.659375  17.0515625 13.021875  C 14.3625 14.090625  12.5 16.696875  12.5 19.809375  Z M 19.53125 25  C 16.5109427743628 25  14.0625 22.5515572256371  14.0625 19.53125  C 14.0625 16.5109427743628  16.5109427743628 14.0625  19.53125 14.0625  C 22.5515572256371 14.0625  25 16.5109427743628  25 19.53125  C 25 22.5515572256371  22.5515572256371 25  19.53125 25  Z " fill-rule="nonzero" fill="#ff6f5b" stroke="none" transform="matrix(1 0 0 1 504 842 )" />
  </g>
</svg>