<?xml version="1.0" standalone="no"?><!DOCTYPE svg PUBLIC "-//W3C//DTD SVG 1.1//EN" "http://www.w3.org/Graphics/SVG/1.1/DTD/svg11.dtd"><svg t="1594303615576" class="icon" viewBox="0 0 1024 1024" version="1.1" xmlns="http://www.w3.org/2000/svg" p-id="16449" xmlns:xlink="http://www.w3.org/1999/xlink" width="200" height="200"><defs><style type="text/css"></style></defs><path d="M0 0m240.941176 0l542.117648 0q240.941176 0 240.941176 240.941176l0 542.117648q0 240.941176-240.941176 240.941176l-542.117648 0q-240.941176 0-240.941176-240.941176l0-542.117648q0-240.941176 240.941176-240.941176Z" fill="#F6A95F" p-id="16450"></path><path d="M216.124235 394.179765h171.550118q-24.094118-35.659294-52.946824-70.595765l43.068236-28.912941q33.912471 39.514353 61.44 73.426823l-37.888 26.081883h160.225882a918.106353 918.106353 0 0 0 65.656471-96.677647l53.669647 31.081411q-33.551059 39.875765-56.440471 65.656471h175.766588v369.844706q0 88.967529-81.197176 89.630118-43.791059 0.722824-98.846118-0.722824a535.070118 535.070118 0 0 0-10.902588-59.271529q55.777882 5.662118 91.738353 5.662117 45.899294 0 45.899294-50.838588v-305.874824h-478.087529v419.478589h-52.705883z m152.45553 397.854117v-227.026823h283.105882v189.861647h-232.267294v37.165176z m-203.956706-548.924235h322.258823q-13.432471-25.057882-32.828235-55.777882l54.211765-24.696471q21.202824 36.141176 44.453647 80.474353h304.24847v50.115765h-692.34447z m436.224 466.582588v-99.508706h-181.428706v99.508706z m-177.874824-259.011764l38.128941 36.683294q-82.642824 70.595765-154.624 123.964235a468.389647 468.389647 0 0 0-33.189647-41.622588 1131.098353 1131.098353 0 0 0 149.684706-119.085177z m124.265412 38.851764l31.081412-38.851764q104.448 65.656471 158.117647 105.170823l-35.297882 44.453647a1803.685647 1803.685647 0 0 0-153.961412-110.832941z" fill="#FFFFFF" p-id="16451"></path></svg>