<?xml version="1.0" encoding="utf-8"?>
<svg version="1.1" xmlns:xlink="http://www.w3.org/1999/xlink" width="25px" height="25px" xmlns="http://www.w3.org/2000/svg">
  <g transform="matrix(1 0 0 1 -209 -73 )">
    <path d="M 24.9762536132812 12.5000249755859  C 24.9762536132812 5.60952175292969  19.3905656982422 0.02375888671875  12.5000125 0.02375888671875  C 5.60950925292969 0.02375888671875  0.0237713867187489 5.60952172851562  0.0237713867187489 12.5000249755859  C 0.0237713867187489 19.3905282226563  5.60953422851562 24.9762410888672  12.5000125 24.9762410888672  C 19.3905656982422 24.9762410888672  24.9762536132812 19.3905281982422  24.9762536132812 12.5000249755859  Z M 5.61875297851563 6.61801298828125  C 5.99247458496094 6.68301892089844  6.33369323730469 6.69928288574219  7.04863352050781 6.69928288574219  L 8.70595986328125 6.69928288574219  C 8.46225009765625 6.24429138183594  8.25101831054688 5.93557568359375  7.81231574707031 5.38312524414062  L 8.77096577148438 5.02566760253906  C 9.46966704101563 6.06553757324219  9.46966704101563 6.06553757324219  9.81088571777344 6.69925791015625  L 11.0945404052734 6.69925791015625  C 11.7607387207031 6.69925791015625  12.0531904296875 6.6829939453125  12.4431510498047 6.61798801269531  L 12.4431510498047 7.70664990234375  C 12.0044484863281 7.64161899414062  11.7119967773438 7.62535502929687  11.0782764404297 7.62535502929687  L 7.03241953125 7.62535502929687  C 6.36622121582032 7.62535502929687  6.05750551757813 7.64161899414062  5.61877797851563 7.70664990234375  L 5.61877797851563 6.61801298828125  Z M 7.42235515136719 7.78789482421875  C 7.8773216796875 8.60039392089844  8.07228947753906 9.0877884765625  8.33226323242187 9.98148254394531  L 7.48733608398438 10.2901982421875  C 7.21112336425781 9.38024018554687  6.99986657714844 8.87653171386719  6.56118901367187 8.11289946289062  L 7.42235515136719 7.78789482421875  Z M 5.29379831542969 10.3551541992187  C 5.66749494628906 10.4202100830078  5.992474609375 10.4364240966797  6.64243393554688 10.4364240966797  L 9.55088701171875 10.4364240966797  C 10.1683183837891 9.38026516113281  10.4120531494141 8.76278381347656  10.6395239257813 7.77168078613281  L 11.6144379394531 8.080396484375  C 11.2407163330078 9.05526052246094  10.8669947021484 9.83520671386719  10.5095370605469 10.4364240966797  L 11.4682120849609 10.4364240966797  C 12.0856434570313 10.4364240966797  12.4106231201172 10.4202100830078  12.7843447509766 10.3551541992187  L 12.7843447509766 11.4437911132812  C 12.3943591552734 11.3787851806641  12.0694044921875 11.3625711914062  11.4682120849609 11.3625711914062  L 6.642408984375 11.3625711914062  C 6.02492763671875 11.3625711914062  5.68373395996094 11.3787852050781  5.29377336425781 11.4437911132812  L 5.29377331542969 10.3551541992187  Z M 5.76500380859375 18.7232056640625  C 5.61875297851563 18.6256967773438  5.61875297851563 18.6256967773438  5.39128220214844 18.4469679443359  C 5.31006228027344 18.3819620117187  5.19631437988281 18.3007420898437  4.9038376953125 18.12198828125  C 5.87877668457031 16.9845844482422  6.28495129394531 16.2696441650391  6.80492375488281 14.8397886230469  L 7.73107082519531 15.1647183105469  C 7.14611743164062 16.6921077392578  6.60993095703125 17.6508327148438  5.76500380859375 18.7232056640625  Z M 9.61589291992188 14.0598424804688  L 9.61589291992188 18.5931938232422  C 9.61589291992188 19.4705739501953  9.30717722167969 19.6980697265625  8.13727043457031 19.6980697265625  C 7.77981279296875 19.6980697265625  7.37358820800781 19.6818557128906  7.11361447753906 19.6493527587891  C 7.11361447753906 19.5843468261719  7.11361447753906 19.5518688476563  7.11361447753906 19.5031019287109  C 7.11361447753906 19.2756061767578  7.03239455566406 18.9668904785156  6.90238269042969 18.6582247558594  C 7.48733608398438 18.77194765625  7.76357380371094 18.8044755859375  8.13727043457031 18.8044755859375  C 8.54349501953125 18.8044755859375  8.67348188476563 18.7232056884766  8.67348188476563 18.4632069580078  L 8.67348188476563 14.0598674316406  L 6.65867292480469 14.0598674316406  C 6.02495258789063 14.0598674316406  5.71623688964844 14.0760814453125  5.3100373046875 14.1573513427734  L 5.3100373046875 13.0849034667969  C 5.68375891113281 13.1661733642578  6.02495258789063 13.1824123535156  6.6749119140625 13.1824123535156  L 8.67348188476563 13.1824123535156  L 8.67348188476563 12.4349691162109  C 8.67348188476563 12.2237373291016  8.64097893066406 11.9638135498047  8.60847595214844 11.7687957763672  L 9.68089885253906 11.7687957763672  C 9.6483958984375 11.9638135498047  9.61589291992188 12.2237373291016  9.61589291992188 12.4349691162109  L 9.61589291992188 13.1824123535156  L 11.4032311035156 13.1824123535156  C 11.9719205322266 13.1824123535156  12.2806362304688 13.1661733642578  12.7030998046875 13.0849034667969  L 12.7030998046875 14.1410624023438  C 12.3293781982422 14.0760564697266  12.0043985351563 14.0598424804688  11.4032311035156 14.0598424804688  L 9.61589291992188 14.0598424804688  Z M 10.2658522460938 15.1647183349609  L 11.0457734619141 14.7910466796875  C 11.8419586425781 15.8472056152344  12.0694543945313 16.2046632568359  12.573162890625 17.2120802246094  L 11.6957078125 17.7483166503906  C 11.2732692138672 16.6433408203125  10.9645535400391 16.0747013671875  10.2658522460938 15.1647183349609  Z M 20.0962123046875 10.2252173095703  L 20.0962122802734 11.3463571777344  C 19.7062266845703 11.2813012939453  19.3325300537109 11.2650872802734  18.682595703125 11.2650872802734  L 18.0814033203125 11.2650872802734  L 18.0814033203125 18.3494590820312  C 18.0814033203125 19.1618582763672  18.0976423095703 19.5680578613281  18.1788872314453 19.974332421875  L 16.9277355224609 19.974332421875  C 16.9927414550781 19.5518438720703  17.0252194335938 19.1456192871094  17.0252194335938 18.3494590820312  L 17.0252194335938 11.2650872802734  L 14.4904629882812 11.2650872802734  C 14.4741990234375 11.4762940917969  14.4741990234375 11.4762940917969  14.4741990234375 11.8988076171875  C 14.4579600341797 14.0598424316406  14.1167413818359 16.2533802246094  13.5642909423828 17.7320027099609  C 13.2393112792969 18.5931938232422  12.8980926269531 19.2106251953125  12.3456421875 19.9580684326172  C 12.0044235351562 19.6331137451172  11.8256947021484 19.4868379150391  11.4357091308594 19.2755811523438  C 12.1506743896484 18.3819620361328  12.6218799072266 17.4395509765625  12.9468095947266 16.18844921875  C 13.3042922119141 14.7910466552734  13.4667820556641 12.6137478759766  13.4667820556641 8.87655668945313  C 13.4667820556641 7.82042275390625  13.4343040771484 7.05674052734375  13.3855621337891 6.65051594238281  C 13.4667820556641 6.65051594238281  13.5480269775391 6.65051594238281  13.5805299560547 6.65051594238281  C 14.4579600585938 6.65051594238281  16.0828084228516 6.32551130371094  17.4314440429687 5.90307270507813  C 18.1138813476563 5.67562690429688  18.5201059326172 5.49684812011719  18.9263055175781 5.20437143554688  L 19.7549686767578 6.1143044921875  C 19.5925038330078 6.16307143554688  19.5925038330078 6.16307143554688  19.1537762939453 6.34175029296875  C 17.8214046386719 6.89425070800781  16.5865168945313 7.20296638183594  14.4904630126953 7.54423500976563  L 14.4904630126953 10.3227261962891  L 18.6175898193359 10.3227261962891  C 19.3487440917969 10.3227261962891  19.7224906982422 10.2902232421875  20.0962123046875 10.2252173095703  Z " fill-rule="nonzero" fill="#dae945" stroke="none" transform="matrix(1 0 0 1 209 73 )" />
  </g>
</svg>