<?xml version="1.0" standalone="no"?><!DOCTYPE svg PUBLIC "-//W3C//DTD SVG 1.1//EN" "http://www.w3.org/Graphics/SVG/1.1/DTD/svg11.dtd"><svg t="1594303671919" class="icon" viewBox="0 0 1024 1024" version="1.1" xmlns="http://www.w3.org/2000/svg" p-id="19980" xmlns:xlink="http://www.w3.org/1999/xlink" width="200" height="200"><defs><style type="text/css"></style></defs><path d="M512 0.006C229.234 0.006 0.006 229.234 0.006 512c0 282.767 229.228 511.994 511.994 511.994 282.767 0 511.994-229.228 511.994-511.994S794.767 0.006 512 0.006z m315.817 827.811c-41.039 41.039-88.811 73.251-141.987 95.743-55.02 23.273-113.506 35.073-173.83 35.073-60.324 0-118.809-11.8-173.83-35.072-52.177-22.492-100.948-54.704-141.987-95.743-41.04-41.039-73.252-88.811-95.744-141.987C77.167 630.809 65.367 572.324 65.367 512c0-60.324 11.8-118.809 35.072-173.83 22.492-52.177 54.705-100.948 95.744-141.987 41.039-41.04 88.811-73.252 141.987-95.744C393.191 77.167 451.676 65.367 512 65.367c60.324 0 118.81 11.8 173.83 35.072 53.177 22.492 100.948 54.705 141.987 95.744s73.251 88.811 95.743 141.987c23.272 55.021 35.072 113.506 35.072 173.83 0 60.324-11.8 118.809-35.072 173.83-22.492 53.177-54.704 100.948-95.743 141.987z" fill="#515151" p-id="19981"></path><path d="M370.764 409.773c0 8.995-0.924 19.756-2.69 32.282v21.521c17.906-1.765 35.855-2.689 53.804-2.689h110.298l48.424 2.689-2.69-13.45c3.573 3.615 15.217 13.45 34.973 29.592 19.714-32.282 36.738-64.564 51.114-96.848h67.255c-5.381 62.8-14.376 111.224-26.902 145.271l-2.689 2.69c0 3.614-5.381-2.69-16.143-18.832-5.38-10.761-16.141-27.784-32.281-51.113l-43.044 26.902c26.901 32.282 51.114 61.873 72.636 88.775-34.09 64.564-75.326 108.533-123.75 131.819 19.715 12.568 38.546 26.903 56.495 43.044 30.475-28.668 62.757-69.944 96.848-123.75 1.765 3.616 3.572 7.188 5.38 10.761 12.526 23.33 22.404 45.735 29.592 67.255 3.572 8.996 8.071 18.832 13.451 29.594l56.494-37.662c-32.281-48.425-58.302-86.97-78.016-115.68 19.714-59.185 33.166-125.515 40.354-199.075 17.906 1.809 33.165 3.616 45.733 5.381v-52.804c-32.282 5.38-55.612 7.188-69.945 5.38h-80.706c17.906-57.377 33.164-93.232 45.732-107.608-23.328-7.146-47.541-13.45-72.635-18.831-14.376 105.843-37.663 182.051-69.945 228.668v-134.51c1.766-26.902 3.573-41.235 5.381-43.043-19.756 5.38-36.78 7.188-51.114 5.38h-48.424c10.761-34.048 18.832-52.879 24.212-56.494 1.765-1.766-15.259-4.455-51.114-8.07-3.615 0-7.188-0.883-10.761-2.69 0 21.521-1.807 43.044-5.38 64.565v2.689H416.5c-5.38 1.808-22.447 0-51.114-5.38 3.573 10.761 5.38 26.02 5.38 45.733v99.538z m45.734-96.847h115.679v32.282H416.498v-32.282z m0 75.325h115.679v26.902H416.498v-26.902z" fill="#515151" p-id="19982"></path><path d="M316.96 711.074V512c0-10.761 1.766-28.667 5.38-52.803l-48.424 2.689h-13.45c-21.522 1.808-43.043 0-64.565-5.38V512h10.761c10.761-1.766 32.282-3.573 64.565-5.38v209.835c-14.376 10.761-38.588 34.09-72.636 69.944l48.424 34.974c23.287-39.471 41.236-60.949 53.804-64.564 8.953-1.766 34.048 7.146 75.326 26.901 28.667 12.526 72.635 21.521 131.82 26.902 50.189 5.381 148.843 8.953 295.921 10.761 3.573-28.71 11.645-50.23 24.213-64.564-57.42 3.615-140.816 7.146-250.189 10.761-82.513 3.573-169.483-15.217-260.95-56.496z m10.761-330.893c-16.141-46.616-34.09-89.659-52.805-129.13l-52.803 21.521c16.141 32.282 33.165 73.561 51.114 123.749l56.494-16.14z" fill="#515151" p-id="19983"></path><path d="M454.161 624.987h69.945c-1.807 23.33-6.305 41.278-13.45 53.806-5.38 10.761-23.33 15.259-52.804 13.451 8.954 14.376 15.216 31.398 18.831 51.113 48.423-1.766 76.208-17.024 83.396-45.732 5.381-17.907 12.527-55.571 21.522-112.989l-51.114 2.69h-67.255l8.071-34.974h78.016c16.141 1.808 38.545 3.614 67.255 5.38V509.31c-14.376 5.38-36.78 7.188-67.255 5.38h-34.973l-18.832-43.043-52.804 8.07 26.903 37.663h-56.495c-17.949 0-37.663-0.883-59.184-2.69-3.616 0-6.306-0.883-8.071-2.69v45.732c7.146-1.766 16.141-2.689 26.901-2.689 8.954-1.765 22.404-2.69 40.354-2.69h13.451c-17.949 86.086-47.541 138.126-88.777 156.031 16.142 3.617 34.972 10.762 56.495 21.522 21.521-25.093 42.117-60.067 61.874-104.919z" fill="#515151" p-id="19984"></path></svg>